<svg xmlns="http://www.w3.org/2000/svg" viewBox="0 0 700 520">
  <rect width="700" height="520" fill="#fff"/>
  <g transform="translate(145 55)" stroke="#111" stroke-width="6" fill="none" stroke-linejoin="round">
    <path d="M70 380 L70 25 L345 25 L345 110 L470 110 L470 380 Z"/>
    <path d="M345 25 L345 110"/>
    <path d="M345 110 L470 110"/>
    <path d="M350 110 q-25 55 -95 70" stroke-width="3"/>
    <path d="M400 110 l0 65 l70 0"/>
    <circle cx="430" cy="142" r="19" stroke-width="4"/>
    <rect x="392" y="185" width="60" height="35" stroke-width="4"/>
    <path d="M175 380 v-28 M300 380 v-28"/>
  </g>
  <g font-family="Arial, sans-serif" fill="#111">
    <text x="86" y="461" font-size="18">C/ CORREU Nº 8 · VILANOVA I LA GELTRÚ</text>
    <text x="86" y="486" font-size="16">PLANTA BAIXA · plànol orientatiu</text>
  </g>
  <g transform="translate(88 494)">
    <rect x="0" y="0" width="42" height="14" fill="#111"/><rect x="42" y="0" width="42" height="14" fill="#1d00ff"/><rect x="84" y="0" width="42" height="14" fill="#fff" stroke="#111"/><rect x="126" y="0" width="42" height="14" fill="#1d00ff"/><rect x="168" y="0" width="42" height="14" fill="#fff" stroke="#111"/><rect x="210" y="0" width="42" height="14" fill="#1d00ff"/>
  </g>
</svg>
